<?xml version="1.0" encoding="utf-8"?>
<!-- Generator: Adobe Illustrator 15.1.0, SVG Export Plug-In  -->
<!DOCTYPE svg [
	<!ENTITY ns_flows "http://ns.adobe.com/Flows/1.0/">
]>
<svg version="1.2" baseProfile="tiny"
	 xmlns="http://www.w3.org/2000/svg" xmlns:xlink="http://www.w3.org/1999/xlink" xmlns:a="http://ns.adobe.com/AdobeSVGViewerExtensions/3.0/"
	 x="0px" y="0px" width="300px" height="200px" viewBox="-2.599 -72.954 300 200" xml:space="preserve">
<defs>
</defs>
<path d="M158.685,36.013c0.641-0.822,23.613-30.473,23.938-30.901c1.527-2.036-0.176-4.119-1.893-4.728
	c-3.117-1.101-5.35,0.437-5.95,1.198c-0.664,0.837-20.216,26.022-20.216,26.022s-0.598,0.909-1.48,0.909
	c-1.048,0-1.444-0.679-1.626-0.9L132.213,3.885c0,0-2.172-2.478-5.953-2.478c-2.78,0-4.53,1.087-5.853,2.675
	c-1.291,1.531-19.221,24.069-19.221,24.069s-0.483,0.528-1.267,0.528c-0.448,0-0.902-0.16-1.278-0.634
	c-0.309-0.392-14.986-17.981-18.366-22.218c-1.874-2.361-4.933-3.252-7.735-3.252H22.081c-7.458,0-14.255,4.654-14.255,10.556
	c0,9.354,10.864,11.331,14.678,11.331h36.433c2.469,0,4.846,1.213,4.846,3.395c0,1.911-2.086,3.328-4.528,3.328h-6.293H4.884
	C3.535,31.186,0,31.744,0,34.623c0,2.883,3.664,3.441,4.884,3.441h54.886c6.876,0,14.501-4.233,14.501-10.209
	c0-5.59-6.79-10.247-14.632-10.247h-36.84c-2.612,0-5.462-1.492-5.462-4.076c0-2.688,2.952-4.074,5.213-4.074h40.89h6.451
	c1.696,0,3.14,0.642,3.918,1.629c1.065,1.355,18.91,23.045,20.776,25.215c0.845,0.983,2.829,2.084,5.475,2.084
	c3.217,0,5.369-2.096,5.658-2.497c0.489-0.615,19.319-24.779,19.319-24.779s0.547-0.529,1.217-0.529c0.76,0,1.217,0.529,1.217,0.529
	s18.526,23.197,19.788,24.879c0.723,0.97,2.903,2.397,5.824,2.397c3.693,0,5.721-2.488,5.708-2.497
	C158.783,35.888,158.753,35.926,158.685,36.013z"/>
<path d="M289.788,0.088c-2.83,0-4.617,1.88-4.617,3.406v22.828c0,0.37-0.06,1.807-1.983,0.195
	c-2.163-1.805-27.852-23.951-28.691-24.676c-1.147-0.98-5.773-2.904-10.064-0.728c-3.605,1.839-3.621,4.555-3.621,5.088V28.09
	c0,0.879-1.018,2.053-2.739,2.053h-7.066c-0.839,0-1.877-0.52-2.6-1.326L207.028,2.589c-0.465-0.542-2.719-2.406-5.884-2.406
	c-3.154,0-5.295,1.08-6.55,2.574l-23.715,29.405c-2.339,2.977,0.971,5.376,3.55,5.376c2.841,0,4-1.452,4.151-1.633
	c0.473-0.613,20.749-25.841,21.036-26.205c0.292-0.359,0.693-0.548,1.266-0.548c0.551,0,1.011,0.247,1.259,0.548
	c0.256,0.305,8.926,11.002,14.711,18.075c1.1,1.341,2.386,2.519-0.118,2.519h-19.678c-2.363,0-4.586,1.364-4.586,3.354
	c0,2.463,2.659,3.502,4.586,3.502h24.057c3.05,0,3.688,0.448,4.546,1.496c0.525,0.654,4.056,5.171,6.843,8.771
	c1.677,2.257,3.049,4.121,3.352,4.539c1.458,2.056,4.616,2.741,7.243,1.556c1.85-0.855,2.892-2.812,0.979-5.318
	c-0.152-0.19-0.384-0.502-0.683-0.881h-0.018c-2.002-2.5-6.617-8.233-6.898-8.561c-0.556-0.682-0.059-1.602,1.151-1.602h3.771
	c1.816,0,4.544-0.915,6.173-2.135c1.638-1.215,2.73-3.076,2.73-4.566V10.566c0-0.797,1.229-0.992,1.738-0.508
	c0.156,0.141,0.353,0.317,0.585,0.526c1.011,0.892,26.422,22.912,27.611,23.918c0.917,0.798,4.261,3.173,9.478,1.705
	c2.981-0.846,5.088-3.557,5.088-5.532V3.749C294.803,1.991,293.096,0.088,289.788,0.088z"/>
</svg>
